<svg width="160" height="160" viewBox="0 0 160 160" fill="none" xmlns="http://www.w3.org/2000/svg">
<g id="&#60;Group&#62;">

<g id="&#60;Group&#62;_3">
<g id="&#60;Group&#62;_4">
<path id="&#60;Path&#62;_2" d="M159.735 79.4063C159.735 123.191 124.187 158.738 80.3284 158.738C36.4694 158.738 0.922119 123.191 0.922119 79.4063C0.922119 35.5473 36.4694 0 80.3284 0C124.187 0 159.735 35.5473 159.735 79.4063Z" fill="#F9FBFF"/>
</g>
<g id="&#60;Group&#62;_5">
<g id="&#60;Group&#62;_6">
<path id="&#60;Compound Path&#62;" fill-rule="evenodd" clip-rule="evenodd" d="M80.1471 142C45.4102 142 17.1206 113.711 17.1206 78.9736C17.1206 44.2366 45.4102 15.947 80.1471 15.947C114.884 15.947 143.174 44.2366 143.174 78.9736C143.174 113.711 114.884 142 80.1471 142ZM80.1471 22.526C48.9628 22.526 23.6996 47.7893 23.6996 78.9736C23.6996 110.026 48.9628 135.421 80.1471 135.421C111.2 135.421 136.595 110.026 136.595 78.9736C136.595 47.7893 111.2 22.526 80.1471 22.526Z" fill="url(#paint0_linear_1518_41691)"/>
</g>
<g id="&#60;Group&#62;_7">
<path id="&#60;Compound Path&#62;_2" fill-rule="evenodd" clip-rule="evenodd" d="M80.1471 117.527C70.147 117.527 60.8049 113.711 53.568 106.869C46.1996 99.7634 41.8575 90.2897 41.5943 79.8949C41.3311 69.6317 45.147 59.8948 52.2522 52.3948C59.2259 45.0263 68.8312 40.6842 79.0944 40.4211C89.4892 40.1579 99.2261 43.9737 106.726 50.9474C114.095 58.0527 118.437 67.658 118.7 77.9212C118.963 88.1844 115.147 98.0528 108.042 105.421C100.937 112.921 91.4629 117.132 81.1997 117.395C80.8488 117.483 80.4979 117.527 80.1471 117.527ZM80.1471 47.0001C79.8839 47.0001 79.6207 47.0001 79.3576 47.0001C70.8049 47.2632 62.9102 50.8158 56.9891 57.0001C51.1996 63.1843 48.0417 71.2106 48.3049 79.7633C48.4364 88.3159 51.9891 96.2107 58.1733 102.132C64.3575 107.921 72.5155 111.079 80.9365 110.816C98.5682 110.421 112.516 95.6844 111.989 78.0528C111.858 69.6317 108.305 61.737 102.121 55.8159C96.0682 50.158 88.4366 47.0001 80.1471 47.0001Z" fill="url(#paint1_linear_1518_41691)"/>
</g>
<g id="&#60;Group&#62;_8">
<path id="&#60;Compound Path&#62;_3" fill-rule="evenodd" clip-rule="evenodd" d="M80.1475 99.632C68.9633 99.632 59.7527 90.6846 59.4896 79.5003C59.0948 68.0529 68.1738 58.5791 79.6212 58.316C85.1476 58.0528 90.4107 60.1581 94.3581 63.9739C98.4371 67.7897 100.674 72.9213 100.805 78.4476C101.2 89.7635 92.1212 99.3688 80.6738 99.632C80.4984 99.632 80.323 99.632 80.1475 99.632ZM80.1475 64.895C80.0598 64.895 79.9282 64.895 79.7528 64.895C71.9896 65.0265 65.8054 71.6055 66.0685 79.3687C66.2001 87.0003 72.5159 93.053 80.1475 93.053C80.2353 93.053 80.3668 93.053 80.5423 93.053C84.2265 92.9214 87.7791 91.3425 90.4107 88.7109C92.9107 85.9477 94.3581 82.3951 94.2265 78.5793C94.0949 74.7634 92.516 71.3424 89.8844 68.7108C87.2528 66.2108 83.8318 64.895 80.1475 64.895Z" fill="url(#paint2_linear_1518_41691)"/>
</g>
<path id="&#60;Path&#62;_3" d="M77.9105 72.9213L31.9893 27.9212V27.7895L32.1209 21.2106L22.9103 12L22.6471 23.4474L11.4629 23.8421L20.2787 32.7896L27.2524 32.3948H28.0419L73.7 77.1318L69.7526 80.9476L88.7 87.5266L81.8579 68.9739L77.9105 72.9213Z" fill="url(#paint3_linear_1518_41691)"/>
</g>
</g>
</g>
<defs>
<linearGradient id="paint0_linear_1518_41691" x1="70.0038" y1="15.947" x2="129.24" y2="42.7359" gradientUnits="userSpaceOnUse">
<stop stop-color="#2B70C5"/>
<stop offset="1" stop-color="#2C8AE8"/>
</linearGradient>
<linearGradient id="paint1_linear_1518_41691" x1="73.9404" y1="40.4083" x2="110.184" y2="56.8021" gradientUnits="userSpaceOnUse">
<stop stop-color="#2B70C5"/>
<stop offset="1" stop-color="#2C8AE8"/>
</linearGradient>
<linearGradient id="paint2_linear_1518_41691" x1="76.8209" y1="58.2939" x2="96.2477" y2="67.0801" gradientUnits="userSpaceOnUse">
<stop stop-color="#2B70C5"/>
<stop offset="1" stop-color="#2C8AE8"/>
</linearGradient>
<linearGradient id="paint3_linear_1518_41691" x1="43.8663" y1="12" x2="79.8821" y2="28.6567" gradientUnits="userSpaceOnUse">
<stop stop-color="#2B70C5"/>
<stop offset="1" stop-color="#2C8AE8"/>
</linearGradient>
</defs>
</svg>
