<svg width="166" height="160" viewBox="0 0 166 160" fill="none" xmlns="http://www.w3.org/2000/svg">
<g id="&#60;Group&#62;">

<g id="&#60;Group&#62;_3">

<g id="&#60;Group&#62;_5">
<path id="&#60;Path&#62;_3" d="M145.894 79.4062C145.894 115.547 116.506 144.935 80.3654 144.935C44.1502 144.935 14.8367 115.547 14.8367 79.4062C14.8367 43.191 44.1502 13.8774 80.3654 13.8774C116.506 13.8774 145.894 43.191 145.894 79.4062Z" fill="url(#paint0_linear_1518_41709)"/>
<path id="&#60;Path&#62;_4" d="M141.293 79.4062C141.293 113.024 113.983 140.334 80.3654 140.334C46.6734 140.334 19.4377 113.024 19.4377 79.4062C19.4377 45.7141 46.6734 18.4043 80.3654 18.4043C113.983 18.4043 141.293 45.7141 141.293 79.4062Z" fill="white"/>
<g id="&#60;Group&#62;_6">
<g id="&#60;Group&#62;_7">
<path id="&#60;Compound Path&#62;" fill-rule="evenodd" clip-rule="evenodd" d="M80.2173 107.31C80.1678 107.31 80.1183 107.31 80.0688 107.31C69.4566 107.31 57.9538 102.857 46.8221 94.3969C38.5846 88.0889 33.464 81.9294 33.2414 81.6326L32.3508 80.5194L33.1672 79.332C33.3898 79.1094 38.5104 72.2819 46.8963 65.3802C57.9538 56.178 69.4566 51.28 80.1431 51.28C80.1925 51.28 80.242 51.28 80.2915 51.28C90.9779 51.3542 102.555 56.2522 113.612 65.6029C121.924 72.5787 126.97 79.4062 127.193 79.7031L128.084 80.8904L127.119 82.0036C126.896 82.2262 121.776 88.3858 113.464 94.6196C102.332 102.931 90.9037 107.31 80.2173 107.31ZM37.1004 80.4452C41.4047 85.1947 59.1412 103.525 80.1431 103.599C80.1431 103.599 80.1678 103.599 80.2173 103.599C101.145 103.599 119.03 85.4915 123.26 80.742C119.104 75.5472 101.293 55.0648 80.2915 54.9906C80.242 54.9906 80.1925 54.9906 80.1431 54.9906C59.2154 54.9906 41.2562 75.3246 37.1004 80.4452Z" fill="url(#paint1_linear_1518_41709)"/>
</g>
<g id="&#60;Group&#62;_8">
<path id="&#60;Compound Path&#62;_2" fill-rule="evenodd" clip-rule="evenodd" d="M99.2155 79.4062C99.1413 89.87 90.607 98.3302 80.1432 98.3302C69.6051 98.2559 61.145 89.7216 61.2192 79.2578C61.2192 68.7198 69.7535 60.2596 80.2916 60.3339C90.7554 60.3339 99.2155 68.8682 99.2155 79.4062ZM89.7907 79.332C89.7907 74.063 85.4864 69.7587 80.2174 69.7587C74.9483 69.7587 70.6441 73.9888 70.6441 79.2578C70.5699 84.601 74.8742 88.9053 80.1432 88.9053C85.4122 88.9053 89.7165 84.601 89.7907 79.332Z" fill="url(#paint2_linear_1518_41709)"/>
</g>
</g>
</g>
</g>
</g>
<defs>
<linearGradient id="paint0_linear_1518_41709" x1="69.8194" y1="13.8774" x2="131.407" y2="41.7299" gradientUnits="userSpaceOnUse">
<stop stop-color="#2B70C5"/>
<stop offset="1" stop-color="#2C8AE8"/>
</linearGradient>
<linearGradient id="paint1_linear_1518_41709" x1="72.5137" y1="51.28" x2="106.444" y2="77.4978" gradientUnits="userSpaceOnUse">
<stop stop-color="#2B70C5"/>
<stop offset="1" stop-color="#2C8AE8"/>
</linearGradient>
<linearGradient id="paint2_linear_1518_41709" x1="77.1596" y1="60.3334" x2="95.0154" y2="68.4085" gradientUnits="userSpaceOnUse">
<stop stop-color="#2B70C5"/>
<stop offset="1" stop-color="#2C8AE8"/>
</linearGradient>
</defs>
</svg>
